<?xml version="1.0" encoding="utf-8"?>
<!-- Generator: Adobe Illustrator 25.4.1, SVG Export Plug-In . SVG Version: 6.00 Build 0)  -->
<svg version="1.1" id="svg" xmlns="http://www.w3.org/2000/svg" xmlns:xlink="http://www.w3.org/1999/xlink" x="0px" y="0px"
	 viewBox="0 0 400 400" style="enable-background:new 0 0 400 400;" xml:space="preserve">
<style type="text/css">
	.st0{fill-rule:evenodd;clip-rule:evenodd;fill:#93F9A4;}
</style>
<g id="svgg">
	<path id="path4" class="st0" d="M175,0.6c-45.8,5.5-88.4,37-126.6,93.7C16.3,141.9,0.2,188.3,0.2,233c0,51.5,18.8,83.9,68.2,117.5
		c81.2,55.2,187.9,65.7,255.8,25.1c63.3-37.8,90.3-116.7,68.9-200.7C378.7,118.6,342,68.3,289.3,32.9C251.7,7.7,211.3-3.8,175,0.6
		 M206.4,18.4c63.9,8.7,133,66.2,160.3,133.3c32.9,80.7,13.5,165.9-46.8,205.5c-68.2,44.8-183.7,28.7-261.7-36.5
		c-33.3-27.8-45.8-63-39.1-109.8c8.2-57.1,47.3-124.6,95.5-164.8C141.4,23.8,174.1,14,206.4,18.4 M0,0 M0,0 M0,0 M0,0"/>
</g>
</svg>
