<?xml version="1.0" encoding="utf-8"?>
<!-- Generator: Adobe Illustrator 25.4.1, SVG Export Plug-In . SVG Version: 6.00 Build 0)  -->
<svg version="1.1" id="Layer_1" xmlns="http://www.w3.org/2000/svg" xmlns:xlink="http://www.w3.org/1999/xlink" x="0px" y="0px"
	 viewBox="0 0 180 50" style="enable-background:new 0 0 180 50;" xml:space="preserve">
<style type="text/css">
	.st0{fill:#5CBC76;}
	.st1{font-family:'Canela-Regular';}
	.st2{font-size:6.8792px;}
</style>
<g>
	<g>
		<g>
			<path class="st0" d="M5.85,23.38c0.39,0.43,0.18,1.01,0.18,1.01s-0.6,0.15-0.99-0.28c-0.39-0.43-0.52-1.39-0.52-1.39
				S5.46,22.95,5.85,23.38z"/>
		</g>
		<g>
			<path class="st0" d="M5.1,19.02c0,0,1.35,0.66,1.8,1.45c0.45,0.79-0.07,1.6-0.07,1.6s-0.96,0.03-1.41-0.76
				C4.97,20.52,5.1,19.02,5.1,19.02z"/>
		</g>
		<g>
			<path class="st0" d="M7.16,30.59c0,0-0.07-1.09,0.26-1.66c0.33-0.57,1.03-0.53,1.03-0.53s0.37,0.6,0.03,1.16
				C8.15,30.13,7.16,30.59,7.16,30.59z"/>
		</g>
		<g>
			<path class="st0" d="M6.94,19.82c0,0,1.05,0.1,1.54,0.5c0.49,0.41,0.35,1.07,0.35,1.07s-0.63,0.26-1.12-0.15
				C7.23,20.83,6.94,19.82,6.94,19.82z"/>
		</g>
		<g>
			<path class="st0" d="M8.48,22.38c0.57,0.12,0.74,0.71,0.74,0.71s-0.39,0.47-0.96,0.35c-0.57-0.12-1.23-0.82-1.23-0.82
				S7.91,22.26,8.48,22.38z"/>
		</g>
		<g>
			<path class="st0" d="M8.77,13.07c0,0,0.54,1.02,0.47,1.71c-0.08,0.69-0.76,0.96-0.76,0.96s-0.61-0.42-0.53-1.1
				C8.02,13.94,8.77,13.07,8.77,13.07z"/>
		</g>
		<g>
			<path class="st0" d="M9.23,29.32c0,0,0.46-0.6,0.9-0.74c0.43-0.14,0.78,0.2,0.78,0.2s-0.08,0.48-0.52,0.62
				C9.96,29.54,9.23,29.32,9.23,29.32z"/>
		</g>
		<g>
			<path class="st0" d="M10.49,21.34c-0.05-0.44,0.3-1.09,0.3-1.09s0.48,0.56,0.53,1c0.05,0.44-0.34,0.7-0.34,0.7
				S10.54,21.78,10.49,21.34z"/>
		</g>
		<g>
			<path class="st0" d="M12.01,10.75c0,0-0.13,1.08-0.56,1.58c-0.43,0.5-1.12,0.33-1.12,0.33s-0.25-0.65,0.18-1.15
				C10.96,11.01,12.01,10.75,12.01,10.75z"/>
		</g>
		<g>
			<path class="st0" d="M10.57,30.34c0,0,0.55-0.72,1.08-0.89c0.52-0.17,0.94,0.24,0.94,0.24s-0.1,0.57-0.62,0.74
				C11.45,30.6,10.57,30.34,10.57,30.34z"/>
		</g>
		<g>
			<path class="st0" d="M11.95,22.52c-0.05-0.64,0.48-1.55,0.48-1.55s0.67,0.82,0.71,1.46c0.05,0.63-0.53,1-0.53,1
				S12,23.15,11.95,22.52z"/>
		</g>
		<g>
			<path class="st0" d="M12,17.8c0,0,0.54-0.65,1.04-0.79c0.49-0.14,0.86,0.26,0.86,0.26s-0.12,0.53-0.61,0.67
				C12.8,18.08,12,17.8,12,17.8z"/>
		</g>
		<g>
			<path class="st0" d="M13.85,19.27c0.05,0.44-0.34,0.7-0.34,0.7s-0.44-0.17-0.48-0.61c-0.05-0.44,0.3-1.09,0.3-1.09
				S13.8,18.83,13.85,19.27z"/>
		</g>
		<g>
			<path class="st0" d="M13.59,13.24c0,0-0.7-0.24-0.81-0.93c-0.11-0.69,0.39-1.73,0.39-1.73s0.79,0.84,0.9,1.52
				C14.19,12.79,13.59,13.24,13.59,13.24z"/>
		</g>
		<g>
			<path class="st0" d="M14.7,15.66c0.08,0.5-0.36,0.83-0.36,0.83s-0.51-0.18-0.59-0.68c-0.08-0.5,0.29-1.27,0.29-1.27
				S14.62,15.15,14.7,15.66z"/>
		</g>
		<g>
			<path class="st0" d="M14.95,8.9c0,0,0.13,0.81-0.09,1.26c-0.21,0.45-0.74,0.47-0.74,0.47s-0.31-0.42-0.1-0.87
				C14.24,9.3,14.95,8.9,14.95,8.9z"/>
		</g>
		<g>
			<path class="st0" d="M16.29,29.73c-0.45,0.48-1.51,0.72-1.51,0.72s0.16-1.08,0.61-1.56c0.45-0.48,1.12-0.3,1.12-0.3
				S16.74,29.25,16.29,29.73z"/>
		</g>
		<g>
			<path class="st0" d="M17.81,16.53c0.03,0.45-0.37,0.7-0.37,0.7s-0.44-0.19-0.47-0.64c-0.03-0.45,0.34-1.09,0.34-1.09
				S17.78,16.09,17.81,16.53z"/>
		</g>
		<g>
			<path class="st0" d="M16.93,11.22c-0.34-0.63-0.22-1.81-0.22-1.81s1.06,0.54,1.4,1.17c0.34,0.63-0.08,1.26-0.08,1.26
				S17.27,11.85,16.93,11.22z"/>
		</g>
		<g>
			<path class="st0" d="M18.43,14.04c0.05,0.72-0.59,1.12-0.59,1.12s-0.7-0.3-0.76-1.02c-0.05-0.72,0.54-1.74,0.54-1.74
				S18.37,13.32,18.43,14.04z"/>
		</g>
		<g>
			<path class="st0" d="M17.58,29.93c0,0,0.08-0.95,0.45-1.39c0.37-0.44,0.96-0.32,0.96-0.32s0.24,0.56-0.13,1.01
				C18.5,29.67,17.58,29.93,17.58,29.93z"/>
		</g>
		<g>
			<path class="st0" d="M17.31,9.27c0,0-0.21-0.79,0.36-1.31c0.57-0.52,1.83-0.7,1.83-0.7s-0.28,1.24-0.85,1.77
				C18.08,9.54,17.31,9.27,17.31,9.27z"/>
		</g>
		<g>
			<path class="st0" d="M19.39,10.2c0,0,0.81,1.23,0.79,2.12c-0.02,0.89-0.87,1.31-0.87,1.31s-0.83-0.46-0.81-1.35
				C18.53,11.4,19.39,10.2,19.39,10.2z"/>
		</g>
		<g>
			<path class="st0" d="M21.05,20.21c0,0-0.06,0.79-0.37,1.16c-0.3,0.37-0.8,0.27-0.8,0.27s-0.2-0.47,0.1-0.84
				C20.29,20.43,21.05,20.21,21.05,20.21z"/>
		</g>
		<g>
			<path class="st0" d="M20.26,14.67c-0.13-0.46,0.12-1.21,0.12-1.21s0.61,0.5,0.74,0.96c0.13,0.46-0.24,0.81-0.24,0.81
				S20.39,15.12,20.26,14.67z"/>
		</g>
		<g>
			<path class="st0" d="M20.9,17.12c0.25-0.27,0.84-0.41,0.84-0.41s-0.08,0.6-0.33,0.87c-0.25,0.27-0.62,0.17-0.62,0.17
				S20.65,17.39,20.9,17.12z"/>
		</g>
		<g>
			<path class="st0" d="M21.28,7c0,0,0.81,1.23,0.79,2.12c-0.02,0.89-0.86,1.31-0.86,1.31s-0.83-0.46-0.81-1.35
				C20.42,8.2,21.28,7,21.28,7z"/>
		</g>
		<g>
			<path class="st0" d="M22.37,20.34c-0.33-0.32-0.48-1.07-0.48-1.07s0.75,0.13,1.08,0.45c0.33,0.32,0.19,0.79,0.19,0.79
				S22.7,20.65,22.37,20.34z"/>
		</g>
		<g>
			<path class="st0" d="M23.24,13.94c0,0,0.36,0.64,0.33,1.08c-0.04,0.44-0.47,0.62-0.47,0.62s-0.4-0.26-0.36-0.7
				C22.77,14.51,23.24,13.94,23.24,13.94z"/>
		</g>
		<g>
			<path class="st0" d="M23.89,10.03c0,0,0.07,1.09-0.26,1.66c-0.34,0.56-1.04,0.53-1.04,0.53s-0.37-0.6-0.03-1.16
				C22.89,10.48,23.89,10.03,23.89,10.03z"/>
		</g>
		<g>
			<path class="st0" d="M23.51,22.34c0.38-0.26,1.14-0.27,1.14-0.27s-0.17,0.46-0.43,0.77c-0.06,0.08-0.14,0.15-0.21,0.2
				c-0.38,0.26-0.81,0.04-0.81,0.04S23.14,22.6,23.51,22.34z"/>
		</g>
		<g>
			<path class="st0" d="M25.48,16.44c0,0-0.3,0.66-0.68,0.88c-0.38,0.22-0.77-0.02-0.77-0.02s-0.02-0.46,0.35-0.69
				C24.75,16.39,25.48,16.44,25.48,16.44z"/>
		</g>
		<g>
			<path class="st0" d="M25.88,10.23c0,0,0.09,1.38-0.33,2.1C25.12,13.04,24.23,13,24.23,13s-0.46-0.76-0.04-1.47
				C24.62,10.8,25.88,10.23,25.88,10.23z"/>
		</g>
		<g>
			<path class="st0" d="M26,9.73c0,0-0.82,0.32-1.45-0.22c-0.62-0.54-0.97-1.87-0.97-1.87s1.36,0.15,1.99,0.69
				C26.2,8.87,26,9.73,26,9.73z"/>
		</g>
		<g>
			<path class="st0" d="M27.04,10.25c0,0,0.58,0.97,0.53,1.66c-0.05,0.68-0.71,0.97-0.71,0.97s-0.62-0.38-0.57-1.06
				C26.33,11.13,27.04,10.25,27.04,10.25z"/>
		</g>
		<g>
			<path class="st0" d="M28.38,29.16c0.18,0.55-0.1,1.46-0.1,1.46s-0.76-0.58-0.93-1.13c-0.18-0.55,0.25-0.98,0.25-0.98
				S28.2,28.62,28.38,29.16z"/>
		</g>
		<g>
			<path class="st0" d="M27.72,22.88c0.46,0.04,1.04,0.53,1.04,0.53s-0.42,0.24-0.83,0.31c-0.1,0.02-0.2,0.02-0.29,0.02
				c-0.46-0.04-0.64-0.49-0.64-0.49S27.26,22.84,27.72,22.88z"/>
		</g>
		<g>
			<path class="st0" d="M28.42,10.63c0,0-0.56-0.07-0.75-0.56c-0.19-0.5,0.01-1.35,0.01-1.35s0.73,0.5,0.92,0.99
				C28.8,10.21,28.42,10.63,28.42,10.63z"/>
		</g>
		<g>
			<path class="st0" d="M29.71,12.19c0.24,0.61-0.22,1.14-0.22,1.14s-0.69-0.08-0.93-0.69c-0.24-0.61,0.02-1.68,0.02-1.68
				S29.48,11.57,29.71,12.19z"/>
		</g>
		<g>
			<path class="st0" d="M30.55,30.05c0.09,0.65-0.41,1.62-0.41,1.62s-0.73-0.81-0.81-1.47c-0.08-0.65,0.49-1.05,0.49-1.05
				S30.46,29.39,30.55,30.05z"/>
		</g>
		<g>
			<path class="st0" d="M29.79,21.41c0.64,0.06,1.46,0.75,1.46,0.75s-0.6,0.33-1.16,0.43c-0.14,0.03-0.28,0.04-0.41,0.02
				c-0.64-0.06-0.9-0.69-0.9-0.69S29.15,21.35,29.79,21.41z"/>
		</g>
		<g>
			<path class="st0" d="M31.65,11.24c0.19,0.69-0.36,1.21-0.36,1.21s-0.74-0.16-0.93-0.85c-0.19-0.69,0.2-1.81,0.2-1.81
				S31.46,10.55,31.65,11.24z"/>
		</g>
		<g>
			<path class="st0" d="M32.15,20.02c0,0-0.33,0.36-0.69,0.56c-0.09,0.05-0.18,0.09-0.27,0.11c-0.45,0.1-0.77-0.26-0.77-0.26
				s0.12-0.47,0.57-0.58C31.45,19.74,32.15,20.02,32.15,20.02z"/>
		</g>
		<g>
			<path class="st0" d="M33.75,13.1c0.19,0.69-0.36,1.21-0.36,1.21s-0.74-0.16-0.93-0.85c-0.19-0.69,0.19-1.81,0.19-1.81
				S33.56,12.41,33.75,13.1z"/>
		</g>
		<g>
			<path class="st0" d="M34.31,17.49c0,0,0.14,0.72-0.03,1.13c-0.18,0.41-0.65,0.44-0.65,0.44s-0.3-0.37-0.12-0.78
				C33.69,17.88,34.31,17.49,34.31,17.49z"/>
		</g>
		<g>
			<path class="st0" d="M34.92,30.01c0.28,0.47,0.22,1.38,0.22,1.38s-0.83-0.38-1.11-0.85c-0.28-0.47,0.02-0.97,0.02-0.97
				S34.64,29.54,34.92,30.01z"/>
		</g>
		<g>
			<path class="st0" d="M35.06,19.4c0.38,0.04,0.86,0.45,0.86,0.45s-0.36,0.19-0.69,0.25c-0.08,0.01-0.17,0.02-0.24,0.01
				c-0.38-0.04-0.53-0.42-0.53-0.42S34.68,19.36,35.06,19.4z"/>
		</g>
		<g>
			<path class="st0" d="M36.03,13.41c0,0,0.76,1.17,0.74,2.01c-0.02,0.84-0.83,1.24-0.83,1.24s-0.78-0.44-0.76-1.28
				C35.21,14.54,36.03,13.41,36.03,13.41z"/>
		</g>
		<g>
			<path class="st0" d="M35.88,27.71c0.41-0.36,1.3-0.46,1.3-0.46s-0.22,0.87-0.63,1.23c-0.41,0.36-0.94,0.15-0.94,0.15
				S35.47,28.07,35.88,27.71z"/>
		</g>
		<g>
			<path class="st0" d="M39.37,21.36c0,0-0.13,1.39-0.67,2.04c-0.54,0.64-1.42,0.46-1.42,0.46s-0.34-0.83,0.2-1.48
				C38.02,21.73,39.37,21.36,39.37,21.36z"/>
		</g>
		<path class="st0" d="M16.37,22.75c-0.29-0.48-1.13-0.87-1.13-0.87s-0.06,0.93,0.23,1.41c0.29,0.48,0.88,0.45,0.88,0.45
			S16.66,23.23,16.37,22.75z M17.41,19.63c-0.05-0.44-0.53-1-0.53-1s-0.35,0.65-0.3,1.09c0.05,0.44,0.48,0.61,0.48,0.61
			S17.46,20.07,17.41,19.63z M17.59,21.44c-0.48,0.01-1.12,0.48-1.12,0.48s0.66,0.43,1.14,0.42c0.48-0.01,0.7-0.47,0.7-0.47
			S18.07,21.43,17.59,21.44z M17.59,21.44c-0.48,0.01-1.12,0.48-1.12,0.48s0.66,0.43,1.14,0.42c0.48-0.01,0.7-0.47,0.7-0.47
			S18.07,21.43,17.59,21.44z M17.41,19.63c-0.05-0.44-0.53-1-0.53-1s-0.35,0.65-0.3,1.09c0.05,0.44,0.48,0.61,0.48,0.61
			S17.46,20.07,17.41,19.63z M16.37,22.75c-0.29-0.48-1.13-0.87-1.13-0.87s-0.06,0.93,0.23,1.41c0.29,0.48,0.88,0.45,0.88,0.45
			S16.66,23.23,16.37,22.75z M16.37,22.75c-0.29-0.48-1.13-0.87-1.13-0.87s-0.06,0.93,0.23,1.41c0.29,0.48,0.88,0.45,0.88,0.45
			S16.66,23.23,16.37,22.75z M17.41,19.63c-0.05-0.44-0.53-1-0.53-1s-0.35,0.65-0.3,1.09c0.05,0.44,0.48,0.61,0.48,0.61
			S17.46,20.07,17.41,19.63z M17.59,21.44c-0.48,0.01-1.12,0.48-1.12,0.48s0.66,0.43,1.14,0.42c0.48-0.01,0.7-0.47,0.7-0.47
			S18.07,21.43,17.59,21.44z M17.59,21.44c-0.48,0.01-1.12,0.48-1.12,0.48s0.66,0.43,1.14,0.42c0.48-0.01,0.7-0.47,0.7-0.47
			S18.07,21.43,17.59,21.44z M17.41,19.63c-0.05-0.44-0.53-1-0.53-1s-0.35,0.65-0.3,1.09c0.05,0.44,0.48,0.61,0.48,0.61
			S17.46,20.07,17.41,19.63z M16.37,22.75c-0.29-0.48-1.13-0.87-1.13-0.87s-0.06,0.93,0.23,1.41c0.29,0.48,0.88,0.45,0.88,0.45
			S16.66,23.23,16.37,22.75z M16.37,22.75c-0.29-0.48-1.13-0.87-1.13-0.87s-0.06,0.93,0.23,1.41c0.29,0.48,0.88,0.45,0.88,0.45
			S16.66,23.23,16.37,22.75z M17.41,19.63c-0.05-0.44-0.53-1-0.53-1s-0.35,0.65-0.3,1.09c0.05,0.44,0.48,0.61,0.48,0.61
			S17.46,20.07,17.41,19.63z M17.59,21.44c-0.48,0.01-1.12,0.48-1.12,0.48s0.66,0.43,1.14,0.42c0.48-0.01,0.7-0.47,0.7-0.47
			S18.07,21.43,17.59,21.44z M17.59,21.44c-0.48,0.01-1.12,0.48-1.12,0.48s0.66,0.43,1.14,0.42c0.48-0.01,0.7-0.47,0.7-0.47
			S18.07,21.43,17.59,21.44z M17.07,20.33c0,0,0.39-0.26,0.34-0.7c-0.05-0.44-0.53-1-0.53-1s-0.35,0.65-0.3,1.09
			C16.63,20.16,17.07,20.33,17.07,20.33z M15.24,21.88c0,0-0.06,0.93,0.23,1.41c0.29,0.48,0.88,0.45,0.88,0.45s0.31-0.51,0.02-0.99
			C16.08,22.27,15.24,21.88,15.24,21.88z M38.15,29.69c-0.43-0.53-0.96-0.76-0.96-0.76c0.4-0.13,0.68-0.35,0.87-0.56
			c0.22,0.05,0.66,0.1,1.02-0.22c0.49-0.43,0.76-1.49,0.76-1.49s-1.08,0.13-1.58,0.56c-0.35,0.31-0.37,0.74-0.35,0.97
			C37,28.65,35.39,28.86,35,28.93c-0.49,0.1-3.18-1.16-4.49-1.31c-1.09-0.13-4.61,0.25-4.14-0.47c0.74-1.13,3.53-0.43,5.28,0.22
			c0.95,0.35,1.69,0.25,2.17,0.07c0,0.01,0,0.02,0,0.02s0.65,0.25,1.15-0.19c0.5-0.43,0.76-1.49,0.76-1.49s-1.09,0.13-1.58,0.56
			c-0.31,0.27-0.36,0.64-0.36,0.88c-1.14,0.09-1.95-0.44-1.95-0.44c0.67-0.12,1.55-0.82,1.55-0.82c1.17-0.5,2.24-0.68,2.95-0.74
			c-0.03,0.05-0.05,0.09-0.05,0.09s0.36,0.6,1.02,0.56c0.66-0.04,1.52-0.71,1.52-0.71s-0.93-0.57-1.59-0.53
			c-0.35,0.02-0.59,0.21-0.75,0.38c-1.18-0.14-2.78,0.24-3.7,0.77c-1.14,0.65-2.38,0.69-4.02,0.24c-1.55-0.43-3.08,0.98-3.27,0.12
			c-0.2-0.86,2.16-1.55,3.33-1.49c1.18,0.06,2.69-0.45,2.69-0.45s1.43,1.08,1.94,0.57c0.33-0.33,1.06-0.81,1.54-1.1
			c0.21,0.05,0.66,0.1,1.03-0.22c0.49-0.43,0.76-1.49,0.76-1.49s-1.08,0.13-1.58,0.56c-0.34,0.3-0.37,0.71-0.35,0.94
			c-0.84,0.2-1.62,0.84-1.82,0.9c-0.26,0.08-1.18-0.63-1.18-0.63c0.16,0,0.59-1.16,0.59-1.16c0.69-1.41,1.3-0.98,3.12-1.06
			c0.82-0.04,1.3-0.34,1.57-0.66c0.22,0.05,0.65,0.08,1-0.23c0.49-0.43,0.76-1.49,0.76-1.49s-1.09,0.13-1.58,0.56
			c-0.38,0.34-0.37,0.83-0.35,1.02c-0.32,0.3-0.81,0.54-1.52,0.37c-1.38-0.33-2.4,0.08-2.45,0.1c0.84-1.72,0.86-1.21,2.04-2.06
			c0.41-0.29,0.69-0.57,0.89-0.81c0.18,0.05,0.68,0.14,1.08-0.21c0.49-0.43,0.76-1.49,0.76-1.49s-1.08,0.13-1.58,0.56
			c-0.3,0.27-0.36,0.62-0.36,0.86c-0.72,0.53-1.96,1.27-2.38,1.42c-0.59,0.22-1.45,2.84-1.61,3.22c-0.16,0.37-0.96,1.39-2.82,1.33
			c-1.81-0.06-3.37,0.49-3.37,0.49c0.12-1.26,2.38-2.5,3.59-3.06c1.18-0.54,0.99-1.57,1.57-2.31c0.47-0.61,1.63-0.75,1.63-0.75
			c1.07-0.71,1.53-1.24,1.72-1.59c0.2-0.11,0.55-0.36,0.62-0.81c0.1-0.65-0.37-1.64-0.37-1.64s-0.75,0.79-0.85,1.44
			c-0.08,0.53,0.27,0.9,0.41,1.03c-0.54,0.59-1.56,1.07-2.05,1.2c-0.63,0.16-1.39,0.69-1.39,0.69c-0.01-0.9,0.35-1.54,0.65-1.91
			c0.21,0.09,0.62,0.2,1.02-0.04c0.57-0.34,1.02-1.33,1.02-1.33s-1.09-0.07-1.66,0.26c-0.5,0.3-0.53,0.87-0.53,1.01
			c-1.19,0.98-0.79,3.16-1.45,3.85c-0.52,0.55-2.18,1.22-2.18,1.22c-0.15-1.45,0.1-2.44,0.3-2.95c0.22,0.08,0.6,0.16,0.97-0.06
			c0.57-0.34,1.02-1.33,1.02-1.33s-1.09-0.07-1.65,0.26c-0.51,0.3-0.53,0.9-0.53,1.02c-0.78,0.74-0.31,1.49-0.71,2.9
			c-0.61,2.12-3.1,2.67-3.55,2.24c-0.61-0.58-0.05-1.74,0.27-2.43c0.15-0.33,0.62-0.59,0.98-0.74c0,0.09,0.02,0.14,0.02,0.14
			s0.49,0.19,0.87-0.14c0.37-0.33,0.57-1.13,0.57-1.13s-0.82,0.1-1.19,0.42c-0.22,0.2-0.27,0.46-0.27,0.63
			c-0.24,0.03-0.49,0.03-0.5-0.13c-0.02-0.31,0.77-1.12,1.96-1.82c1.2-0.71,0.67-0.82,1-1.75c0.33-0.92,1.72-1.42,2.24-1.59
			c0.19-0.06,0.59-0.33,0.94-0.58c0.22,0.08,0.6,0.16,0.97-0.06c0.57-0.34,1.02-1.33,1.02-1.33S31,13.26,30.43,13.6
			c-0.5,0.29-0.53,0.87-0.53,1c-0.36,0.14-0.69,0.27-0.69,0.27c-1.84,0.41-2.37,1.57-2.37,1.57c-0.01-0.66,0.31-1.18,0.56-1.49
			c0.16,0.07,0.5,0.17,0.83-0.02c0.45-0.27,0.81-1.05,0.81-1.05s-0.86-0.06-1.31,0.21c-0.38,0.22-0.42,0.65-0.42,0.78
			c-1.31,0.95-0.76,2.65-1.08,2.91c-0.35,0.27-2.08,1.31-2.08,1.31c-0.1-0.22-0.24-1.47-0.24-1.47c-0.24-1.14,0.67-2.4,1.22-3.04
			c0.22,0.07,0.58,0.13,0.92-0.07c0.57-0.34,1.02-1.33,1.02-1.33s-1.09-0.07-1.65,0.26c-0.57,0.33-0.53,1.03-0.53,1.03
			s0.01,0,0.02,0.01c-0.88,0.69-1.43,2.11-1.43,2.11s-0.1,0.12-0.94-0.27c-0.64-0.3-0.81-1.33-0.85-2c0.17-0.08,0.62-0.32,0.7-0.85
			c0.1-0.65-0.37-1.64-0.37-1.64s-0.75,0.79-0.85,1.44c-0.08,0.54,0.29,0.92,0.42,1.03c-0.28,1.76-0.09,1.81,1.16,2.66
			c1.35,0.92,0.92,2.94,0.24,4.12c-0.69,1.18-0.9,2.33-2.51,1.2c-1.61-1.14-0.82-1.2-0.22-3.14c0.37-1.19,0.17-1.92-0.04-2.3
			c0.13-0.15,0.29-0.42,0.24-0.76c-0.09-0.55-0.72-1.23-0.72-1.23s-0.4,0.84-0.32,1.39c0.09,0.55,0.65,0.75,0.65,0.75s0,0,0.01-0.01
			c0.07,0.62,0.03,1.63-0.15,1.89c-0.23,0.33-0.82,1.82-0.82,1.82c-0.37-3.43-1.57-3.12-2.33-3.37c-0.77-0.25-0.73-1.04-0.47-2.69
			c0.12-0.81,0-1.33-0.15-1.65c0.12-0.19,0.31-0.59,0.13-1.04c-0.25-0.61-1.16-1.21-1.16-1.21s-0.24,1.07,0.01,1.68
			c0.17,0.43,0.56,0.59,0.78,0.65c0.06,0.44,0.08,1.05-0.07,1.46c-0.29,0.78-0.04,2.49-0.04,2.49s-0.49,0.1-2.12-0.69
			c-0.86-0.42-1.39-0.9-1.69-1.26c0.08-0.11,0.4-0.59,0.19-1.12c-0.25-0.61-1.16-1.21-1.16-1.21s-0.24,1.07,0.01,1.68
			c0.16,0.4,0.51,0.57,0.74,0.63c0.34,0.98,1.01,1.38,2.07,1.85c0.44,0.19,0.82,0.35,1.18,0.47c-0.11,0.29-0.25,0.76-0.2,1.11
			c0.05,0.35,0.31,0.56,0.48,0.66c0.05,1.87-0.97,1.72-0.97,1.72c-0.06-0.74-1.92-1.24-2.98-1.8c-0.58-0.31-0.69-0.79-0.68-1.16
			c0.2-0.13,0.45-0.36,0.51-0.74c0.1-0.65-0.37-1.64-0.37-1.64s-0.75,0.79-0.85,1.44c-0.1,0.62,0.41,1.03,0.46,1.07
			c-0.34,1.16,1.2,1.77,2.39,2.17c1.28,0.43,1.04,1.53,0.9,2c-0.15,0.49,0.69,2.26,0.69,2.26c-3.1-0.19-4.53-3.67-4.53-3.67
			c-0.19-1.69-0.78-2.53-1.26-2.94c-0.03-0.2-0.14-0.63-0.57-0.84c-0.56-0.28-1.59-0.13-1.59-0.13s0.51,0.91,1.07,1.19
			c0.4,0.2,0.79,0.06,0.98-0.04c0.58,1.03,0.68,3.04,0.82,3.31c0.28,0.56,1.37,1.88,1.37,1.88c-1.43,0.17-2.31,0.58-2.83,0.96
			c-0.15-0.06-0.63-0.21-1.06,0.09c-0.51,0.37-0.86,1.35-0.86,1.35s1.04-0.02,1.55-0.39c0.26-0.19,0.36-0.45,0.4-0.66
			c2.73-1.37,4.87,0.1,5.57,0.35c0.12,0.04,0.31,0.06,0.57,0.05h0c0,0,0.82-0.03,1.58-0.13c0,0,0,0-0.01-0.01
			c0.12-0.01,0.23-0.03,0.35-0.04c0.01,0,0.02,0,0.02,0c0.02,0,0.04-0.01,0.07-0.01c1.28-0.15,2.64-0.29,3.1-0.06
			c0.88,0.43,1.86,1.78,1.57,2.22c-0.23,0.33-1.99,0.2-2.92,0.14c0,0,0,0,0,0c-1.31-0.06-1.96,0.35-2.09,0.44
			c-0.02,0.01-0.03,0.02-0.03,0.02c-2.35,1.84-2.99,1.41-3.12,1.26c-0.14-0.16-0.12-0.87-0.27-1.12c-0.16-0.27-0.74-0.66-1.19-0.93
			c0.07-0.15,0.21-0.55-0.01-0.92c-0.29-0.48-1.13-0.87-1.13-0.87s-0.06,0.93,0.23,1.41c0.17,0.28,0.44,0.39,0.64,0.43
			c0.5,0.51,1.32,0.95,1.09,1.77c-0.03,0.11-0.74-0.79-2.63-1.53c-0.67-0.26-0.61-0.46-2.2-0.81c-0.55-0.12-1.1-0.14-1.54-0.13
			c-0.09-0.09-0.51-0.45-1.04-0.3c-0.61,0.17-1.28,0.96-1.28,0.96s0.98,0.34,1.59,0.18c0.41-0.11,0.61-0.45,0.69-0.66
			c1.57,0.3,2.54,1.09,2.54,1.09c-1.21,0.22-2.15,0.83-2.77,1.35c-0.22-0.05-0.53-0.07-0.82,0.12c-0.53,0.34-0.93,1.3-0.93,1.3
			s1.04,0.03,1.57-0.31c0.53-0.34,0.47-1.01,0.47-1.01s-0.01,0-0.02-0.01c1.29-0.74,3.36-1.57,4.53-0.8
			c2.02,1.33,3.04,1.61,3.04,1.61c0,0.66-0.48,1.69-0.79,2.28c-0.22-0.05-0.53-0.07-0.82,0.12c-0.53,0.34-0.93,1.3-0.93,1.3
			s1.04,0.03,1.57-0.31c0.53-0.34,0.47-1,0.47-1s-0.03-0.02-0.08-0.04c0.89-1.14,2.14-4.27,4.79-4.23c2.21,0.03,3.83,0.74,3.88,5.18
			c0.05,4.68-2.56,9.18-5.95,9.79c2.15,0.81,4.48,1.25,6.91,1.25c2.8,0,5.47-0.59,7.88-1.64c-5.91-0.11-7.68-9.47-4.89-12.89
			c2.57-3.14,6.2-0.06,7.47,1.2c-0.08,0.22-0.14,0.59,0.07,0.95c0.34,0.57,1.33,1.02,1.33,1.02s0.07-1.09-0.26-1.66
			c-0.2-0.34-0.54-0.46-0.77-0.51c-0.47-0.96-2.13-1.8-2.12-2.07c0.02-0.33,3.3,1.02,3.84,1.33c0.5,0.29,1.36,1.41,1.92,2.18
			c-0.05,0.08-0.33,0.63-0.02,1.15c0.34,0.57,1.33,1.02,1.33,1.02s0.07-1.09-0.26-1.65c-0.2-0.33-0.52-0.46-0.75-0.5
			c-0.38-0.89-1.09-2.2-1.09-2.2c0.63-0.69,1.52-0.29,2.11,0.13c-0.09,0.21-0.2,0.62,0.04,1.02c0.34,0.57,1.33,1.02,1.33,1.02
			s0.07-1.09-0.26-1.65C38.78,29.82,38.38,29.72,38.15,29.69z M22.01,25.97c-0.61,0.1-1.57-1.43-2.76-2
			c-1.12-0.53-3.61,0.53-4.08,0.28c-0.47-0.26-0.95-1.24-0.94-1.94c0.02-1.04,1.12-1.04,1.37-1.88c0.13-0.44,0.04-0.9-0.09-1.24
			c0.12-0.1,0.42-0.42,0.35-0.87c-0.04-0.27-0.21-0.57-0.38-0.8c0.54,0.16,1.07,0.27,1.69,0.36c1.04,0.16,1.04,1.88,1.22,3.02
			c0.18,1.12,1.59,2.3,2.84,2.83C22.48,24.25,22.62,25.87,22.01,25.97z M17.59,21.44c-0.48,0.01-1.12,0.48-1.12,0.48
			s0.66,0.43,1.14,0.42c0.48-0.01,0.7-0.47,0.7-0.47S18.07,21.43,17.59,21.44z M17.07,20.33c0,0,0.39-0.26,0.34-0.7
			c-0.05-0.44-0.53-1-0.53-1s-0.35,0.65-0.3,1.09C16.63,20.16,17.07,20.33,17.07,20.33z M15.24,21.88c0,0-0.06,0.93,0.23,1.41
			c0.29,0.48,0.88,0.45,0.88,0.45s0.31-0.51,0.02-0.99C16.08,22.27,15.24,21.88,15.24,21.88z M16.37,22.75
			c-0.29-0.48-1.13-0.87-1.13-0.87s-0.06,0.93,0.23,1.41c0.29,0.48,0.88,0.45,0.88,0.45S16.66,23.23,16.37,22.75z M17.41,19.63
			c-0.05-0.44-0.53-1-0.53-1s-0.35,0.65-0.3,1.09c0.05,0.44,0.48,0.61,0.48,0.61S17.46,20.07,17.41,19.63z M17.59,21.44
			c-0.48,0.01-1.12,0.48-1.12,0.48s0.66,0.43,1.14,0.42c0.48-0.01,0.7-0.47,0.7-0.47S18.07,21.43,17.59,21.44z M17.59,21.44
			c-0.48,0.01-1.12,0.48-1.12,0.48s0.66,0.43,1.14,0.42c0.48-0.01,0.7-0.47,0.7-0.47S18.07,21.43,17.59,21.44z M17.41,19.63
			c-0.05-0.44-0.53-1-0.53-1s-0.35,0.65-0.3,1.09c0.05,0.44,0.48,0.61,0.48,0.61S17.46,20.07,17.41,19.63z M16.37,22.75
			c-0.29-0.48-1.13-0.87-1.13-0.87s-0.06,0.93,0.23,1.41c0.29,0.48,0.88,0.45,0.88,0.45S16.66,23.23,16.37,22.75z M16.37,22.75
			c-0.29-0.48-1.13-0.87-1.13-0.87s-0.06,0.93,0.23,1.41c0.29,0.48,0.88,0.45,0.88,0.45S16.66,23.23,16.37,22.75z M17.41,19.63
			c-0.05-0.44-0.53-1-0.53-1s-0.35,0.65-0.3,1.09c0.05,0.44,0.48,0.61,0.48,0.61S17.46,20.07,17.41,19.63z M17.59,21.44
			c-0.48,0.01-1.12,0.48-1.12,0.48s0.66,0.43,1.14,0.42c0.48-0.01,0.7-0.47,0.7-0.47S18.07,21.43,17.59,21.44z M17.59,21.44
			c-0.48,0.01-1.12,0.48-1.12,0.48s0.66,0.43,1.14,0.42c0.48-0.01,0.7-0.47,0.7-0.47S18.07,21.43,17.59,21.44z M17.41,19.63
			c-0.05-0.44-0.53-1-0.53-1s-0.35,0.65-0.3,1.09c0.05,0.44,0.48,0.61,0.48,0.61S17.46,20.07,17.41,19.63z M16.37,22.75
			c-0.29-0.48-1.13-0.87-1.13-0.87s-0.06,0.93,0.23,1.41c0.29,0.48,0.88,0.45,0.88,0.45S16.66,23.23,16.37,22.75z"/>
		<polygon class="st0" points="15.66,25.75 15.66,25.75 15.66,25.75 		"/>
		<g>
			<path class="st0" d="M15.82,25.37c0,0,0.88,0.14,1.26,0.5c0.39,0.37,0.23,0.91,0.23,0.91s-0.54,0.18-0.93-0.18
				C16,26.24,15.82,25.37,15.82,25.37z"/>
		</g>
	</g>
</g>
<g>
	<path class="st0" d="M46.14,7.8c0.09,2.95,0.16,5.89,0.19,8.84l0.06,8.84l-0.06,8.84c-0.03,2.95-0.1,5.89-0.19,8.84
		c-0.09-2.95-0.16-5.89-0.19-8.84l-0.06-8.84l0.06-8.84C45.98,13.69,46.05,10.74,46.14,7.8z"/>
</g>
<g>
	<text transform="matrix(1 0 0 1 87.4009 38.0273)" class="st0 st1 st2">Breath the fresh air</text>
	<g>
		<g>
			<path class="st0" d="M52.56,26.82l8.27-13.57l-2.49,0.1c-2.41,0.1-4.11,2.02-5.11,3.49l-0.15-0.06l0.94-3.88h10.1v0.19
				l-8.25,13.59l3.03-0.12c2.43-0.06,4.2-2.26,5.26-3.91l0.15,0.06l-0.98,4.3H52.56V26.82z"/>
			<path class="st0" d="M70,25.91c-0.6,0.75-1.52,1.39-2.76,1.39c-1.16,0-2.1-0.54-2.1-1.77c0-2.02,2.7-2.91,4.8-3.32v-1.7
				c0-1.08-0.42-1.66-1.81-1.66c-0.75,0-1.68,0.17-2.53,0.71l-0.1-0.13c0.87-1.1,2.29-2.01,4.16-2.01c2.01,0,2.74,1.06,2.74,2.41
				v5.24c0,0.46,0.19,0.85,0.79,0.85c0.25,0,0.54-0.08,0.85-0.31l0.04,0.06c-0.31,0.64-0.89,1.58-2.28,1.58
				C70.73,27.26,70.13,26.68,70,25.91z M69.94,25.58v-3.03c-1.45,0.37-2.58,1.06-2.58,2.18c0,0.75,0.48,1.23,1.35,1.23
				C69.23,25.97,69.65,25.79,69.94,25.58z"/>
			<path class="st0" d="M75.11,24.17v-8.33c0-1.33-0.35-2.1-0.91-2.74v-0.04l3.37-1.06v12.15c0,1.48,0.21,2.18,0.52,2.82v0.04h-3.43
				v-0.04C74.92,26.33,75.11,25.66,75.11,24.17z M77.66,22.17l2.26-2.28c0.75-0.71,0.79-1.62,0.46-2.14v-0.04h2.91v0.04
				c-1.23,0.54-2.06,1.37-2.89,2.2l-0.83,0.87l2.76,4.28c0.56,0.85,0.93,1.43,1.6,1.87v0.04h-3.18L77.66,22.17z"/>
			<path class="st0" d="M85.06,24.81V18.1H84v-0.13l3.34-2.45h0.19v2.2h2.41v0.39h-2.41v6.63c0,1.06,0.52,1.48,1.37,1.48
				c0.67,0,1.14-0.27,1.2-0.33l0.06,0.06c-0.48,0.75-1.41,1.35-2.7,1.35C86.12,27.3,85.06,26.68,85.06,24.81z"/>
			<path class="st0" d="M91.73,23.42v-2.18c0-1.31-0.33-2.06-0.93-2.74v-0.12l3.37-1.06v6.09c0,1.62,0.08,2.55,0.44,3.55v0.04h-3.36
				v-0.04C91.54,25.97,91.73,25.06,91.73,23.42z M92.78,15.73c-0.77,0-1.39-0.62-1.39-1.39c0-0.75,0.62-1.39,1.39-1.39
				s1.41,0.64,1.41,1.39C94.18,15.11,93.55,15.73,92.78,15.73z"/>
			<path class="st0" d="M99.77,27.01v-0.04c0.5-1.25,0.75-2.04,0.75-3.55v-6.94c0-1.5-0.23-2.31-0.75-3.55v-0.04h9.41l0.73,3.57
				l-0.17,0.06c-1.02-1.06-2.58-3.08-3.51-3.14l-2.91-0.15v6.4h1.43c0.98,0,1.83-1.23,2.56-1.97h0.17v4.36h-0.17
				c-0.71-0.66-1.58-1.97-2.56-1.97h-1.43v6.63l3.14-0.13c1.48-0.06,3.24-2.24,4.3-3.7l0.17,0.06l-0.91,4.11H99.77z"/>
			<path class="st0" d="M116.62,27.3c-2.68,0-4.43-1.87-4.43-4.74c0-2.99,2.29-5.13,5.11-5.13c1.31,0,2.1,0.27,2.58,0.48l0.25,2.43
				l-0.17,0.04c-0.79-1.31-1.99-2.58-2.95-2.58c-1.39,0-2.37,1.45-2.37,3.74c0,2.64,1.41,3.88,3.26,3.88c0.93,0,1.87-0.25,2.41-0.85
				l0.12,0.08C119.9,26.26,118.62,27.3,116.62,27.3z"/>
			<path class="st0" d="M121.15,22.38c0-2.64,2.29-4.96,5.05-4.96c2.76,0,5.05,2.31,5.05,4.96c0,2.62-2.28,4.92-5.05,4.92
				C123.41,27.3,121.15,25,121.15,22.38z M128.66,22.38c0-2.51-0.75-4.57-2.45-4.57c-1.7,0-2.43,2.06-2.43,4.57
				c0,2.53,0.71,4.55,2.43,4.55C127.9,26.93,128.66,24.91,128.66,22.38z"/>
			<path class="st0" d="M136.07,27.01v-0.04c0.6-1.25,0.77-2.02,0.77-3.72v-6.59c0-1.74-0.15-2.45-0.77-3.72v-0.04h9.81l0.73,3.57
				l-0.19,0.04c-1.04-1.04-2.58-3.08-3.51-3.14l-3.3-0.15v6.31h1.7c0.98,0,1.83-1.25,2.56-1.99h0.17v4.38h-0.17
				c-0.73-0.67-1.56-1.97-2.56-1.97h-1.7v3.32c0,1.7,0.17,2.47,0.77,3.72v0.04H136.07z"/>
			<path class="st0" d="M150.47,25.91c-0.6,0.75-1.52,1.39-2.76,1.39c-1.16,0-2.1-0.54-2.1-1.77c0-2.02,2.7-2.91,4.8-3.32v-1.7
				c0-1.08-0.42-1.66-1.81-1.66c-0.75,0-1.68,0.17-2.53,0.71l-0.1-0.13c0.87-1.1,2.29-2.01,4.16-2.01c2.01,0,2.74,1.06,2.74,2.41
				v5.24c0,0.46,0.19,0.85,0.79,0.85c0.25,0,0.54-0.08,0.85-0.31l0.04,0.06c-0.31,0.64-0.89,1.58-2.28,1.58
				C151.21,27.26,150.61,26.68,150.47,25.91z M150.42,25.58v-3.03c-1.45,0.37-2.58,1.06-2.58,2.18c0,0.75,0.48,1.23,1.35,1.23
				C149.7,25.97,150.13,25.79,150.42,25.58z"/>
			<path class="st0" d="M155.29,26.97c0.31-1,0.44-1.85,0.44-3.55v-2.24c0-1.33-0.35-2.08-0.91-2.76v-0.04l3.3-1.06v2.35h0.02
				c0.79-0.85,1.79-2.31,3.24-2.26l-0.17,2.76h-0.1c-0.4-0.46-1.37-0.83-1.83-0.83c-0.31,0-0.71,0.25-1.08,0.69v3.37
				c0,1.64,0.08,2.56,0.44,3.55v0.04h-3.36V26.97z"/>
			<path class="st0" d="M162.64,27.01v-0.04c0.31-1,0.44-1.85,0.44-3.55v-2.24c0-1.33-0.35-2.08-0.91-2.76v-0.04l3.3-1.06v1.89
				l0.08,0.02c0.64-1.02,1.64-1.81,3.03-1.81s2.22,0.66,2.45,1.81h0.04c0.67-1.02,1.66-1.81,3.05-1.81c1.62,0,2.51,0.96,2.51,2.58
				v3.39c0,1.68,0.08,2.58,0.44,3.57v0.04h-3.36v-0.04c0.37-0.98,0.44-1.95,0.44-3.53v-3.12c0-0.87-0.29-1.6-1.27-1.6
				c-0.67,0-1.37,0.33-1.81,1.02v3.66c0,1.68,0.1,2.58,0.46,3.57v0.04h-3.36v-0.04c0.37-0.98,0.44-1.95,0.44-3.53v-3.12
				c0-0.87-0.31-1.6-1.29-1.6c-0.67,0-1.33,0.33-1.77,1.02v3.68c0,1.64,0.08,2.56,0.44,3.55v0.04H162.64z"/>
		</g>
	</g>
</g>
<g>
	<path class="st0" d="M142.83,35.35v1.36c3.03-0.17,6.05-0.39,9.08-0.68C148.88,35.74,145.85,35.52,142.83,35.35z"/>
	<path class="st0" d="M85.58,35.43c-2.62,0.16-5.24,0.35-7.86,0.6c2.62,0.25,5.24,0.44,7.86,0.6V35.43z"/>
</g>
</svg>
